<?xml version="1.0" encoding="UTF-8"?>
<svg id="Capa_2" data-name="Capa 2" xmlns="http://www.w3.org/2000/svg" viewBox="0 0 115.54 196.06">
  <defs>
    <style>
      .cls-1 {
        fill: #0495b2;
      }
    </style>
  </defs>
  <g id="Capa_1-2" data-name="Capa 1">
    <g>
      <polygon class="cls-1" points="114.42 145.34 110.42 145.34 110.42 88.81 83.44 145.3 57.08 89.04 57.08 145.34 53.08 145.34 53.08 71.08 83.48 135.95 114.42 71.15 114.42 145.34"/>
      <polygon class="cls-1" points="4 104.22 0 104.22 0 0 70.37 0 70.37 30.11 66.37 30.11 66.37 4 4 4 4 104.22"/>
      <polygon class="cls-1" points="19 145.34 15 145.34 15 41.12 85.37 41.12 85.37 71.24 81.37 71.24 81.37 45.12 19 45.12 19 145.34"/>
      <g>
        <path class="cls-1" d="M6.74,172.92l-2.71-3.9h-1.24v3.9H1.21v-10.08s3.13,0,3.13,0c1.88,0,3.42,1.45,3.42,3.24,0,1.3-.84,2.43-2,2.81l2.93,4.04h-1.95Zm-2.37-5.22c.95,0,1.75-.76,1.75-1.66s-.81-1.63-1.75-1.63h-1.59v3.3h1.59Z"/>
        <path class="cls-1" d="M11.33,164.39v2.58h3.82v1.58h-3.82v2.79h4.42v1.58h-6.01v-10.08h6.01v1.56h-4.42Z"/>
        <path class="cls-1" d="M24.92,162.84v10.08h-1.58v-4.26h-4.37v4.26h-1.58v-10.08h1.58v4.25h4.37v-4.25h1.58Z"/>
        <path class="cls-1" d="M43.67,169.85c0,1.55-1.17,3.07-3.17,3.07h-3.77v-10.08h2.75c1.74,0,2.92,1.25,2.92,2.59,0,1.09-.76,1.81-1.13,1.81,1.13,0,2.41,1.04,2.41,2.61Zm-5.37-5.47v2.51h1.25c.78,0,1.36-.54,1.36-1.26s-.63-1.26-1.34-1.26h-1.27Zm3.82,5.37c0-.76-.65-1.46-1.8-1.46h-2.03v3.1h2.05c.91,0,1.77-.66,1.77-1.63Z"/>
        <path class="cls-1" d="M44.92,162.84h1.58v10.08h-1.58v-10.08Z"/>
        <path class="cls-1" d="M54.52,171.34v1.58h-6.08v-10.08h1.58v8.51h4.5Z"/>
        <path class="cls-1" d="M55.78,162.84h1.58v10.08h-1.58v-10.08Z"/>
        <path class="cls-1" d="M65.62,164.41h-2.7v8.51h-1.59v-8.51h-2.7v-1.57h6.99v1.57Z"/>
        <path class="cls-1" d="M71.97,171.39h-4.77l-.69,1.53h-1.71l4.74-10.16h.09l4.74,10.16h-1.71l-.69-1.53Zm-.61-1.36l-1.77-3.81-1.78,3.81h3.55Z"/>
        <path class="cls-1" d="M33.21,171.39h-4.77l-.69,1.53h-1.71l4.74-10.16h.09l4.74,10.16h-1.71l-.69-1.53Zm-.61-1.36l-1.77-3.81-1.78,3.81h3.55Z"/>
        <path class="cls-1" d="M74.07,167.88c0-2.84,2.37-5.12,5.21-5.12,1.31,.02,2.52,.58,3.5,1.54l-.92,1.25c-.71-.71-1.63-1.18-2.62-1.18-1.83,0-3.57,1.5-3.57,3.52s1.77,3.6,3.58,3.6c1.03,0,1.92-.51,2.62-1.2l.91,1.28c-.87,.86-1.98,1.51-3.48,1.51-2.86,0-5.23-2.35-5.23-5.2Z"/>
        <path class="cls-1" d="M84.03,162.84h1.58v10.08h-1.58v-10.08Z"/>
        <path class="cls-1" d="M87.07,167.89c0-2.88,2.34-5.23,5.21-5.23s5.22,2.35,5.22,5.23-2.35,5.19-5.22,5.19-5.21-2.34-5.21-5.19Zm8.83-.01c0-2-1.63-3.62-3.62-3.62s-3.61,1.63-3.61,3.62,1.62,3.6,3.61,3.6,3.62-1.62,3.62-3.6Z"/>
        <path class="cls-1" d="M107.05,162.81v10.11h-.08l-6.45-6.46v6.48h-1.58v-10.17h.08l6.44,6.45v-6.4h1.59Z"/>
        <path class="cls-1" d="M108.41,171.15l1.25-.89c.45,.79,1.29,1.24,2.26,1.24,1.13,0,1.99-.54,1.99-1.31,0-.93-1.33-1.5-2.5-2-1.18-.53-2.5-1.14-2.5-2.72s1.43-2.8,3.25-2.8c1.44,0,2.51,.69,2.93,1.8l-1.18,.81c-.31-.68-1.01-1.06-1.74-1.06-.93,0-1.66,.58-1.66,1.29,0,.79,.93,1.07,2.16,1.59,1.59,.7,2.83,1.47,2.83,3.06,0,1.79-1.55,2.94-3.6,2.94-1.66,0-2.92-.78-3.49-1.94Z"/>
      </g>
      <g>
        <path class="cls-1" d="M9.62,196.04l-4.15-5.96h-1.89v5.96H1.17v-15.4s4.78,0,4.78,0c2.87,0,5.22,2.21,5.22,4.95,0,1.99-1.28,3.72-3.05,4.29l4.48,6.16h-2.97Zm-3.62-7.97c1.45,0,2.67-1.17,2.67-2.54s-1.23-2.49-2.67-2.49H3.58v5.03h2.43Z"/>
        <path class="cls-1" d="M13.41,190.2v-9.56h2.43v9.55c0,2.13,1.5,3.4,3.38,3.4s3.4-1.27,3.4-3.4v-9.55h2.44v9.56c0,3.53-2.55,5.84-5.83,5.84s-5.82-2.3-5.82-5.84Z"/>
        <path class="cls-1" d="M27.86,179.37l1.89-3.12h2.13l-2.27,3.12h-1.75Zm0,1.27h2.42v15.4h-2.42v-15.4Z"/>
        <path class="cls-1" d="M39.63,183.04h-6.98v-2.4h10.83l-6.97,12.99h6.97v2.41h-10.83l6.98-13Z"/>
        <path class="cls-1" d="M66.67,180.3v15.73h-2.42v-8.54l-5.11,8.54h-.02l-5.12-8.55v8.55h-2.42v-15.73h.18l7.36,11.45,7.36-11.45h.18Z"/>
        <path class="cls-1" d="M79.33,193.7h-7.29l-1.05,2.34h-2.62l7.24-15.71h.14l7.24,15.71h-2.62l-1.05-2.34Zm-.94-2.07l-2.7-6.02-2.71,6.02h5.42Z"/>
        <path class="cls-1" d="M93.18,196.04l-4.15-5.96h-1.89v5.96h-2.42v-15.4s4.78,0,4.78,0c2.87,0,5.22,2.21,5.22,4.95,0,1.99-1.28,3.72-3.05,4.29l4.48,6.16h-2.97Zm-3.62-7.97c1.45,0,2.67-1.17,2.67-2.54s-1.23-2.49-2.67-2.49h-2.43v5.03h2.43Z"/>
        <path class="cls-1" d="M97.78,179.37l1.89-3.12h2.13l-2.27,3.12h-1.75Zm0,1.27h2.42v15.4h-2.42v-15.4Z"/>
        <path class="cls-1" d="M115.54,180.6v15.44h-.11l-9.85-9.75v9.77h-2.42v-15.42h.12l9.83,9.73v-9.77h2.43Z"/>
      </g>
    </g>
  </g>
</svg>