<?xml version="1.0" encoding="UTF-8"?>
<svg id="Capa_1" data-name="Capa 1" xmlns="http://www.w3.org/2000/svg" viewBox="0 0 150 161.2">
  <defs>
    <style>
      .cls-1 {
        fill: #0495b2;
      }
    </style>
  </defs>
  <polygon class="cls-1" points="145.96 76.67 115.08 141.36 84.74 76.61 80.7 67.99 80.7 77.51 80.7 156.28 80.7 158.4 82.82 158.4 87.06 158.4 89.18 158.4 89.18 156.28 89.18 106.09 113.1 157.14 115 161.2 116.93 157.15 141.51 105.68 141.51 156.28 141.51 158.4 143.64 158.4 147.88 158.4 150 158.4 150 156.28 150 77.59 150 68.22 145.96 76.67"/>
  <polygon class="cls-1" points="70.4 34.06 70.4 36.18 72.52 36.18 76.76 36.18 78.88 36.18 78.88 34.06 78.88 2.12 78.88 0 76.76 0 2.12 0 0 0 0 2.12 0 112.66 0 114.79 2.12 114.79 6.36 114.79 8.49 114.79 8.49 112.66 8.49 8.49 70.4 8.49 70.4 34.06"/>
  <polygon class="cls-1" points="110.7 77.68 110.7 79.8 112.82 79.8 117.07 79.8 119.19 79.8 119.19 77.68 119.19 45.74 119.19 43.61 117.07 43.61 42.43 43.61 40.31 43.61 40.31 45.74 40.31 156.28 40.31 158.4 42.43 158.4 46.67 158.4 48.79 158.4 48.79 156.28 48.79 52.1 110.7 52.1 110.7 77.68"/>
</svg>